#N canvas 800 307 492 453 10;
#X msg 44 32 close;
#X msg 65 53 open 1;
#X text 112 52 Open serial port by number;
#X msg 106 94 devices;
#X msg 86 74 open 0;
#X msg 127 115 ports;
#X obj 44 152 comport 1 9600;
#X obj 44 263 tgl 15 0 empty empty empty 17 7 0 10 -262144 -1 -1 0
1;
#X msg 44 210 1;
#X obj 44 237 -;
#X obj 44 185 t b f;
#X obj 80 289 osc~ 440;
#X obj 44 291 sig~;
#X obj 43 325 *~;
#X obj 164 190 vsl 15 100 0 1 0 0 empty empty empty 0 -9 0 10 -257985
-1 -1 4400 1;
#X msg 164 298 \$1 20;
#X obj 164 321 line~;
#X obj 44 365 *~;
#X obj 44 409 dac~;
#X obj 354 16 tgl 15 0 empty empty empty 17 7 0 10 -262144 -1 -1 1
1;
#X msg 354 36 \; pd dsp \$1;
#X obj 328 304 snapshot~;
#X floatatom 328 327 5 0 0 0 - - -, f 5;
#X obj 333 152 tgl 15 0 empty empty empty 17 7 0 10 -262144 -1 -1 1
1;
#X obj 333 172 metro 100;
#X connect 0 0 6 0;
#X connect 1 0 6 0;
#X connect 3 0 6 0;
#X connect 4 0 6 0;
#X connect 5 0 6 0;
#X connect 6 0 10 0;
#X connect 7 0 12 0;
#X connect 8 0 9 0;
#X connect 9 0 7 0;
#X connect 10 0 8 0;
#X connect 10 1 9 1;
#X connect 11 0 13 1;
#X connect 12 0 13 0;
#X connect 13 0 17 0;
#X connect 14 0 15 0;
#X connect 15 0 16 0;
#X connect 16 0 17 1;
#X connect 17 0 18 0;
#X connect 17 0 18 1;
#X connect 17 0 21 0;
#X connect 19 0 20 0;
#X connect 21 0 22 0;
#X connect 23 0 24 0;
#X connect 24 0 21 0;
